<svg xmlns="http://www.w3.org/2000/svg" xmlns:xlink="http://www.w3.org/1999/xlink" version="1.1" class="marks" width="730" height="412" viewBox="0 0 730 412"><rect width="730" height="412" fill="#FFFCF0"/><g fill="none" stroke-miterlimit="10" transform="translate(45,68)"><g class="mark-group role-frame root" role="graphics-object" aria-roledescription="group mark container"><g transform="translate(0,0)"><path class="background" aria-hidden="true" d="M0,0h680v320h-680Z"/><g><g class="mark-group role-axis" aria-hidden="true"><g transform="translate(0.5,0.5)"><path class="background" aria-hidden="true" d="M0,0h0v0h0Z" pointer-events="none"/><g><g class="mark-rule role-axis-grid" pointer-events="none"><line transform="translate(0,320)" x2="680" y2="0" stroke="#E6E4D9" stroke-width="1" stroke-dasharray="" opacity="1"/><line transform="translate(0,291)" x2="680" y2="0" stroke="#E6E4D9" stroke-width="1" stroke-dasharray="" opacity="1"/><line transform="translate(0,262)" x2="680" y2="0" stroke="#E6E4D9" stroke-width="1" stroke-dasharray="" opacity="1"/><line transform="translate(0,233)" x2="680" y2="0" stroke="#E6E4D9" stroke-width="1" stroke-dasharray="" opacity="1"/><line transform="translate(0,204)" x2="680" y2="0" stroke="#E6E4D9" stroke-width="1" stroke-dasharray="" opacity="1"/><line transform="translate(0,175)" x2="680" y2="0" stroke="#E6E4D9" stroke-width="1" stroke-dasharray="" opacity="1"/><line transform="translate(0,145)" x2="680" y2="0" stroke="#E6E4D9" stroke-width="1" stroke-dasharray="" opacity="1"/><line transform="translate(0,116)" x2="680" y2="0" stroke="#E6E4D9" stroke-width="1" stroke-dasharray="" opacity="1"/><line transform="translate(0,87)" x2="680" y2="0" stroke="#E6E4D9" stroke-width="1" stroke-dasharray="" opacity="1"/><line transform="translate(0,58)" x2="680" y2="0" stroke="#E6E4D9" stroke-width="1" stroke-dasharray="" opacity="1"/><line transform="translate(0,29)" x2="680" y2="0" stroke="#E6E4D9" stroke-width="1" stroke-dasharray="" opacity="1"/><line transform="translate(0,0)" x2="680" y2="0" stroke="#E6E4D9" stroke-width="1" stroke-dasharray="" opacity="1"/></g></g><path class="foreground" aria-hidden="true" d="" pointer-events="none" display="none"/></g></g><g class="mark-group role-axis" role="graphics-symbol" aria-roledescription="axis" aria-label="X-axis for a discrete scale with 7 values: pyproject-udeps, deptry, py-unused-deps, creosote, pytomlcleaner, pip-extra-reqs, fawltydeps"><g transform="translate(0.5,320.5)"><path class="background" aria-hidden="true" d="M0,0h0v0h0Z" pointer-events="none"/><g><g class="mark-rule role-axis-tick" pointer-events="none"><line transform="translate(48,0)" x2="0" y2="5" stroke="#6F6E69" stroke-width="1" opacity="1"/><line transform="translate(145,0)" x2="0" y2="5" stroke="#6F6E69" stroke-width="1" opacity="1"/><line transform="translate(242,0)" x2="0" y2="5" stroke="#6F6E69" stroke-width="1" opacity="1"/><line transform="translate(340,0)" x2="0" y2="5" stroke="#6F6E69" stroke-width="1" opacity="1"/><line transform="translate(437,0)" x2="0" y2="5" stroke="#6F6E69" stroke-width="1" opacity="1"/><line transform="translate(534,0)" x2="0" y2="5" stroke="#6F6E69" stroke-width="1" opacity="1"/><line transform="translate(631,0)" x2="0" y2="5" stroke="#6F6E69" stroke-width="1" opacity="1"/></g><g class="mark-text role-axis-label" pointer-events="none"><text text-anchor="middle" transform="translate(48.07142857142855,16)" font-family="Helvetica, Arial, sans-serif" font-size="11.5px" fill="#100F0F" opacity="1">pyproject-udeps</text><text text-anchor="middle" transform="translate(145.2142857142857,16)" font-family="Helvetica, Arial, sans-serif" font-size="11.5px" fill="#100F0F" opacity="1">deptry</text><text text-anchor="middle" transform="translate(242.35714285714283,16)" font-family="Helvetica, Arial, sans-serif" font-size="11.5px" fill="#100F0F" opacity="1">py-unused-deps</text><text text-anchor="middle" transform="translate(339.5,16)" font-family="Helvetica, Arial, sans-serif" font-size="11.5px" fill="#100F0F" opacity="1">creosote</text><text text-anchor="middle" transform="translate(436.6428571428571,16)" font-family="Helvetica, Arial, sans-serif" font-size="11.5px" fill="#100F0F" opacity="1">pytomlcleaner</text><text text-anchor="middle" transform="translate(533.7857142857142,16)" font-family="Helvetica, Arial, sans-serif" font-size="11.5px" fill="#100F0F" opacity="1">pip-extra-reqs</text><text text-anchor="middle" transform="translate(630.9285714285714,16)" font-family="Helvetica, Arial, sans-serif" font-size="11.5px" fill="#100F0F" opacity="1">fawltydeps</text></g><g class="mark-rule role-axis-domain" pointer-events="none"><line transform="translate(0,0)" x2="680" y2="0" stroke="#6F6E69" stroke-width="1" opacity="1"/></g></g><path class="foreground" aria-hidden="true" d="" pointer-events="none" display="none"/></g></g><g class="mark-group role-axis" role="graphics-symbol" aria-roledescription="axis" aria-label="Y-axis titled 'Time (seconds)' for a linear scale with values from 0 to 6"><g transform="translate(0.5,0.5)"><path class="background" aria-hidden="true" d="M0,0h0v0h0Z" pointer-events="none"/><g><g class="mark-rule role-axis-tick" pointer-events="none"><line transform="translate(0,320)" x2="-5" y2="0" stroke="#6F6E69" stroke-width="1" opacity="1"/><line transform="translate(0,291)" x2="-5" y2="0" stroke="#6F6E69" stroke-width="1" opacity="1"/><line transform="translate(0,262)" x2="-5" y2="0" stroke="#6F6E69" stroke-width="1" opacity="1"/><line transform="translate(0,233)" x2="-5" y2="0" stroke="#6F6E69" stroke-width="1" opacity="1"/><line transform="translate(0,204)" x2="-5" y2="0" stroke="#6F6E69" stroke-width="1" opacity="1"/><line transform="translate(0,175)" x2="-5" y2="0" stroke="#6F6E69" stroke-width="1" opacity="1"/><line transform="translate(0,145)" x2="-5" y2="0" stroke="#6F6E69" stroke-width="1" opacity="1"/><line transform="translate(0,116)" x2="-5" y2="0" stroke="#6F6E69" stroke-width="1" opacity="1"/><line transform="translate(0,87)" x2="-5" y2="0" stroke="#6F6E69" stroke-width="1" opacity="1"/><line transform="translate(0,58)" x2="-5" y2="0" stroke="#6F6E69" stroke-width="1" opacity="1"/><line transform="translate(0,29)" x2="-5" y2="0" stroke="#6F6E69" stroke-width="1" opacity="1"/><line transform="translate(0,0)" x2="-5" y2="0" stroke="#6F6E69" stroke-width="1" opacity="1"/></g><g class="mark-text role-axis-label" pointer-events="none"><text text-anchor="end" transform="translate(-7,323)" font-family="Helvetica, Arial, sans-serif" font-size="11px" fill="#6F6E69" opacity="1">0.0</text><text text-anchor="end" transform="translate(-7,293.9090909090909)" font-family="Helvetica, Arial, sans-serif" font-size="11px" fill="#6F6E69" opacity="1">0.5</text><text text-anchor="end" transform="translate(-7,264.8181818181818)" font-family="Helvetica, Arial, sans-serif" font-size="11px" fill="#6F6E69" opacity="1">1.0</text><text text-anchor="end" transform="translate(-7,235.72727272727275)" font-family="Helvetica, Arial, sans-serif" font-size="11px" fill="#6F6E69" opacity="1">1.5</text><text text-anchor="end" transform="translate(-7,206.63636363636363)" font-family="Helvetica, Arial, sans-serif" font-size="11px" fill="#6F6E69" opacity="1">2.0</text><text text-anchor="end" transform="translate(-7,177.54545454545453)" font-family="Helvetica, Arial, sans-serif" font-size="11px" fill="#6F6E69" opacity="1">2.5</text><text text-anchor="end" transform="translate(-7,148.45454545454547)" font-family="Helvetica, Arial, sans-serif" font-size="11px" fill="#6F6E69" opacity="1">3.0</text><text text-anchor="end" transform="translate(-7,119.36363636363637)" font-family="Helvetica, Arial, sans-serif" font-size="11px" fill="#6F6E69" opacity="1">3.5</text><text text-anchor="end" transform="translate(-7,90.27272727272727)" font-family="Helvetica, Arial, sans-serif" font-size="11px" fill="#6F6E69" opacity="1">4.0</text><text text-anchor="end" transform="translate(-7,61.181818181818166)" font-family="Helvetica, Arial, sans-serif" font-size="11px" fill="#6F6E69" opacity="1">4.5</text><text text-anchor="end" transform="translate(-7,32.0909090909091)" font-family="Helvetica, Arial, sans-serif" font-size="11px" fill="#6F6E69" opacity="1">5.0</text><text text-anchor="end" transform="translate(-7,3)" font-family="Helvetica, Arial, sans-serif" font-size="11px" fill="#6F6E69" opacity="1">5.5</text></g><g class="mark-rule role-axis-domain" pointer-events="none"><line transform="translate(0,320)" x2="0" y2="-320" stroke="#6F6E69" stroke-width="1" opacity="1"/></g><g class="mark-text role-axis-title" pointer-events="none"><text text-anchor="middle" transform="translate(-26.29150390625,160) rotate(-90) translate(0,-3)" font-family="Helvetica, Arial, sans-serif" font-size="12px" font-weight="bold" fill="#100F0F" opacity="1">Time (seconds)</text></g></g><path class="foreground" aria-hidden="true" d="" pointer-events="none" display="none"/></g></g><g class="mark-group role-scope" role="graphics-object" aria-roledescription="group mark container"><g transform="translate(21.468571428571405,307.28145454545455)"><path class="background" aria-hidden="true" d="M3,0L51.205714285714286,0C52.86145935919629,0,54.205714285714286,1.344254926518,54.205714285714286,3L54.205714285714286,12.718545454545449C54.205714285714286,12.718545454545449,54.205714285714286,12.718545454545449,54.205714285714286,12.718545454545449L0,12.718545454545449C0,12.718545454545449,0,12.718545454545449,0,12.718545454545449L0,3C0,1.344254926518,1.344254926518,0,3,0Z"/><g clip-path="url(#clip1)"><g class="mark-group role-scope" role="graphics-object" aria-roledescription="group mark container"><g transform="translate(0,-307.28145454545455)"><path class="background" aria-hidden="true" d="M0,0h54.205714285714286v0h-54.205714285714286Z"/><g><g class="mark-rect role-mark layer_0_marks" role="graphics-object" aria-roledescription="rect mark container"><path aria-label="tool: pyproject-udeps; Time (seconds): 0.2186" role="graphics-symbol" aria-roledescription="bar" d="M0,307.28145454545455h54.205714285714286v12.718545454545449h-54.205714285714286Z" fill="#AF3029"/></g></g><path class="foreground" aria-hidden="true" d="" display="none"/></g></g></g><path class="foreground" aria-hidden="true" d="" display="none"/></g><g transform="translate(118.61142857142855,304.20945454545455)"><path class="background" aria-hidden="true" d="M3,0L51.205714285714286,0C52.86145935919629,0,54.205714285714286,1.344254926518,54.205714285714286,3L54.205714285714286,15.790545454545452C54.205714285714286,15.790545454545452,54.205714285714286,15.790545454545452,54.205714285714286,15.790545454545452L0,15.790545454545452C0,15.790545454545452,0,15.790545454545452,0,15.790545454545452L0,3C0,1.344254926518,1.344254926518,0,3,0Z"/><g clip-path="url(#clip2)"><g class="mark-group role-scope" role="graphics-object" aria-roledescription="group mark container"><g transform="translate(0,-304.20945454545455)"><path class="background" aria-hidden="true" d="M0,0h54.205714285714286v0h-54.205714285714286Z"/><g><g class="mark-rect role-mark layer_0_marks" role="graphics-object" aria-roledescription="rect mark container"><path aria-label="tool: deptry; Time (seconds): 0.2714" role="graphics-symbol" aria-roledescription="bar" d="M0,304.20945454545455h54.205714285714286v15.790545454545452h-54.205714285714286Z" fill="#205EA6"/></g></g><path class="foreground" aria-hidden="true" d="" display="none"/></g></g></g><path class="foreground" aria-hidden="true" d="" display="none"/></g><g transform="translate(215.7542857142857,227.54909090909092)"><path class="background" aria-hidden="true" d="M3,0L51.205714285714286,0C52.86145935919629,0,54.205714285714286,1.344254926518,54.205714285714286,3L54.205714285714286,92.45090909090908C54.205714285714286,92.45090909090908,54.205714285714286,92.45090909090908,54.205714285714286,92.45090909090908L0,92.45090909090908C0,92.45090909090908,0,92.45090909090908,0,92.45090909090908L0,3C0,1.344254926518,1.344254926518,0,3,0Z"/><g clip-path="url(#clip3)"><g class="mark-group role-scope" role="graphics-object" aria-roledescription="group mark container"><g transform="translate(0,-227.54909090909092)"><path class="background" aria-hidden="true" d="M0,0h54.205714285714286v0h-54.205714285714286Z"/><g><g class="mark-rect role-mark layer_0_marks" role="graphics-object" aria-roledescription="rect mark container"><path aria-label="tool: py-unused-deps; Time (seconds): 1.589" role="graphics-symbol" aria-roledescription="bar" d="M0,227.54909090909092h54.205714285714286v92.45090909090908h-54.205714285714286Z" fill="#205EA6"/></g></g><path class="foreground" aria-hidden="true" d="" display="none"/></g></g></g><path class="foreground" aria-hidden="true" d="" display="none"/></g><g transform="translate(312.89714285714285,196.99200000000002)"><path class="background" aria-hidden="true" d="M3,0L51.205714285714286,0C52.86145935919629,0,54.205714285714286,1.344254926518,54.205714285714286,3L54.205714285714286,123.00799999999998C54.205714285714286,123.00799999999998,54.205714285714286,123.00799999999998,54.205714285714286,123.00799999999998L0,123.00799999999998C0,123.00799999999998,0,123.00799999999998,0,123.00799999999998L0,3C0,1.344254926518,1.344254926518,0,3,0Z"/><g clip-path="url(#clip4)"><g class="mark-group role-scope" role="graphics-object" aria-roledescription="group mark container"><g transform="translate(0,-196.99200000000002)"><path class="background" aria-hidden="true" d="M0,0h54.205714285714286v0h-54.205714285714286Z"/><g><g class="mark-rect role-mark layer_0_marks" role="graphics-object" aria-roledescription="rect mark container"><path aria-label="tool: creosote; Time (seconds): 2.1142" role="graphics-symbol" aria-roledescription="bar" d="M0,196.99200000000002h54.205714285714286v123.00799999999998h-54.205714285714286Z" fill="#205EA6"/></g></g><path class="foreground" aria-hidden="true" d="" display="none"/></g></g></g><path class="foreground" aria-hidden="true" d="" display="none"/></g><g transform="translate(410.03999999999996,102.98181818181817)"><path class="background" aria-hidden="true" d="M3,0L51.205714285714286,0C52.86145935919629,0,54.205714285714286,1.344254926518,54.205714285714286,3L54.205714285714286,217.01818181818183C54.205714285714286,217.01818181818183,54.205714285714286,217.01818181818183,54.205714285714286,217.01818181818183L0,217.01818181818183C0,217.01818181818183,0,217.01818181818183,0,217.01818181818183L0,3C0,1.344254926518,1.344254926518,0,3,0Z"/><g clip-path="url(#clip5)"><g class="mark-group role-scope" role="graphics-object" aria-roledescription="group mark container"><g transform="translate(0,-102.98181818181817)"><path class="background" aria-hidden="true" d="M0,0h54.205714285714286v0h-54.205714285714286Z"/><g><g class="mark-rect role-mark layer_0_marks" role="graphics-object" aria-roledescription="rect mark container"><path aria-label="tool: pytomlcleaner; Time (seconds): 3.73" role="graphics-symbol" aria-roledescription="bar" d="M0,102.98181818181817h54.205714285714286v217.01818181818183h-54.205714285714286Z" fill="#205EA6"/></g></g><path class="foreground" aria-hidden="true" d="" display="none"/></g></g></g><path class="foreground" aria-hidden="true" d="" display="none"/></g><g transform="translate(507.1828571428571,43.37454545454545)"><path class="background" aria-hidden="true" d="M3,0L51.205714285714286,0C52.86145935919629,0,54.205714285714286,1.344254926518,54.205714285714286,3L54.205714285714286,276.62545454545455C54.205714285714286,276.62545454545455,54.205714285714286,276.62545454545455,54.205714285714286,276.62545454545455L0,276.62545454545455C0,276.62545454545455,0,276.62545454545455,0,276.62545454545455L0,3C0,1.344254926518,1.344254926518,0,3,0Z"/><g clip-path="url(#clip6)"><g class="mark-group role-scope" role="graphics-object" aria-roledescription="group mark container"><g transform="translate(0,-43.37454545454545)"><path class="background" aria-hidden="true" d="M0,0h54.205714285714286v0h-54.205714285714286Z"/><g><g class="mark-rect role-mark layer_0_marks" role="graphics-object" aria-roledescription="rect mark container"><path aria-label="tool: pip-extra-reqs; Time (seconds): 4.7545" role="graphics-symbol" aria-roledescription="bar" d="M0,43.37454545454545h54.205714285714286v276.62545454545455h-54.205714285714286Z" fill="#205EA6"/></g></g><path class="foreground" aria-hidden="true" d="" display="none"/></g></g></g><path class="foreground" aria-hidden="true" d="" display="none"/></g><g transform="translate(604.3257142857143,5.492363636363642)"><path class="background" aria-hidden="true" d="M3,0L51.205714285714286,0C52.86145935919629,0,54.205714285714286,1.344254926518,54.205714285714286,3L54.205714285714286,314.5076363636364C54.205714285714286,314.5076363636364,54.205714285714286,314.5076363636364,54.205714285714286,314.5076363636364L0,314.5076363636364C0,314.5076363636364,0,314.5076363636364,0,314.5076363636364L0,3C0,1.344254926518,1.344254926518,0,3,0Z"/><g clip-path="url(#clip7)"><g class="mark-group role-scope" role="graphics-object" aria-roledescription="group mark container"><g transform="translate(0,-5.492363636363642)"><path class="background" aria-hidden="true" d="M0,0h54.205714285714286v0h-54.205714285714286Z"/><g><g class="mark-rect role-mark layer_0_marks" role="graphics-object" aria-roledescription="rect mark container"><path aria-label="tool: fawltydeps; Time (seconds): 5.4056" role="graphics-symbol" aria-roledescription="bar" d="M0,5.492363636363642h54.205714285714286v314.5076363636364h-54.205714285714286Z" fill="#205EA6"/></g></g><path class="foreground" aria-hidden="true" d="" display="none"/></g></g></g><path class="foreground" aria-hidden="true" d="" display="none"/></g></g><g class="mark-rule role-mark layer_1_marks" role="graphics-object" aria-roledescription="rule mark container"><line aria-label="tool: pyproject-udeps; min: 0.215; max: 0.2216" role="graphics-symbol" aria-roledescription="rule mark" transform="translate(48.57142857142855,307.4909090909091)" x2="0" y2="-0.38400000000001455" stroke="#100F0F" stroke-width="1.2"/><line aria-label="tool: deptry; min: 0.266; max: 0.2794" role="graphics-symbol" aria-roledescription="rule mark" transform="translate(145.7142857142857,304.52363636363634)" x2="0" y2="-0.779636363636314" stroke="#100F0F" stroke-width="1.2"/><line aria-label="tool: py-unused-deps; min: 1.5692; max: 1.6015" role="graphics-symbol" aria-roledescription="rule mark" transform="translate(242.85714285714283,228.7010909090909)" x2="0" y2="-1.8792727272727348" stroke="#100F0F" stroke-width="1.2"/><line aria-label="tool: creosote; min: 2.0826; max: 2.2292" role="graphics-symbol" aria-roledescription="rule mark" transform="translate(340,198.83054545454547)" x2="0" y2="-8.529454545454541" stroke="#100F0F" stroke-width="1.2"/><line aria-label="tool: pytomlcleaner; min: 3.6479; max: 3.869" role="graphics-symbol" aria-roledescription="rule mark" transform="translate(437.1428571428571,107.75854545454547)" x2="0" y2="-12.864000000000004" stroke="#100F0F" stroke-width="1.2"/><line aria-label="tool: pip-extra-reqs; min: 4.7194; max: 4.808" role="graphics-symbol" aria-roledescription="rule mark" transform="translate(534.2857142857142,45.41672727272726)" x2="0" y2="-5.154909090909072" stroke="#100F0F" stroke-width="1.2"/><line aria-label="tool: fawltydeps; min: 5.3415; max: 5.4632" role="graphics-symbol" aria-roledescription="rule mark" transform="translate(631.4285714285714,9.221818181818193)" x2="0" y2="-7.080727272727252" stroke="#100F0F" stroke-width="1.2"/></g><g class="mark-rect role-mark layer_2_marks" role="graphics-object" aria-roledescription="rect mark container"><path aria-label="tool: pyproject-udeps; min: 0.215" role="graphics-symbol" aria-roledescription="tick" d="M45.07142857142855,306.8909090909091h7v1.2h-7Z" fill="#100F0F" opacity="0.7"/><path aria-label="tool: deptry; min: 0.266" role="graphics-symbol" aria-roledescription="tick" d="M142.2142857142857,303.9236363636363h7v1.2h-7Z" fill="#100F0F" opacity="0.7"/><path aria-label="tool: py-unused-deps; min: 1.5692" role="graphics-symbol" aria-roledescription="tick" d="M239.35714285714283,228.1010909090909h7v1.2h-7Z" fill="#100F0F" opacity="0.7"/><path aria-label="tool: creosote; min: 2.0826" role="graphics-symbol" aria-roledescription="tick" d="M336.5,198.23054545454548h7v1.2h-7Z" fill="#100F0F" opacity="0.7"/><path aria-label="tool: pytomlcleaner; min: 3.6479" role="graphics-symbol" aria-roledescription="tick" d="M433.6428571428571,107.15854545454548h7v1.2h-7Z" fill="#100F0F" opacity="0.7"/><path aria-label="tool: pip-extra-reqs; min: 4.7194" role="graphics-symbol" aria-roledescription="tick" d="M530.7857142857142,44.816727272727256h7v1.2h-7Z" fill="#100F0F" opacity="0.7"/><path aria-label="tool: fawltydeps; min: 5.3415" role="graphics-symbol" aria-roledescription="tick" d="M627.9285714285714,8.621818181818194h7v1.2h-7Z" fill="#100F0F" opacity="0.7"/></g><g class="mark-rect role-mark layer_3_marks" role="graphics-object" aria-roledescription="rect mark container"><path aria-label="tool: pyproject-udeps; max: 0.2216" role="graphics-symbol" aria-roledescription="tick" d="M45.07142857142855,306.50690909090906h7v1.2h-7Z" fill="#100F0F" opacity="0.7"/><path aria-label="tool: deptry; max: 0.2794" role="graphics-symbol" aria-roledescription="tick" d="M142.2142857142857,303.144h7v1.2h-7Z" fill="#100F0F" opacity="0.7"/><path aria-label="tool: py-unused-deps; max: 1.6015" role="graphics-symbol" aria-roledescription="tick" d="M239.35714285714283,226.22181818181818h7v1.2h-7Z" fill="#100F0F" opacity="0.7"/><path aria-label="tool: creosote; max: 2.2292" role="graphics-symbol" aria-roledescription="tick" d="M336.5,189.70109090909094h7v1.2h-7Z" fill="#100F0F" opacity="0.7"/><path aria-label="tool: pytomlcleaner; max: 3.869" role="graphics-symbol" aria-roledescription="tick" d="M433.6428571428571,94.29454545454547h7v1.2h-7Z" fill="#100F0F" opacity="0.7"/><path aria-label="tool: pip-extra-reqs; max: 4.808" role="graphics-symbol" aria-roledescription="tick" d="M530.7857142857142,39.661818181818184h7v1.2h-7Z" fill="#100F0F" opacity="0.7"/><path aria-label="tool: fawltydeps; max: 5.4632" role="graphics-symbol" aria-roledescription="tick" d="M627.9285714285714,1.5410909090909413h7v1.2h-7Z" fill="#100F0F" opacity="0.7"/></g><g class="mark-text role-mark layer_4_marks" role="graphics-object" aria-roledescription="text mark container"><text aria-label="tool: pyproject-udeps; max: 0.2216; label: 0.22 s" role="graphics-symbol" aria-roledescription="text mark" text-anchor="middle" transform="translate(48.57142857142855,302.1069090909091)" font-family="Helvetica, Arial, sans-serif" font-size="11.5px" font-weight="600" fill="#100F0F">0.22 s</text><text aria-label="tool: deptry; max: 0.2794; label: 0.27 s" role="graphics-symbol" aria-roledescription="text mark" text-anchor="middle" transform="translate(145.7142857142857,298.744)" font-family="Helvetica, Arial, sans-serif" font-size="11.5px" font-weight="600" fill="#100F0F">0.27 s</text><text aria-label="tool: py-unused-deps; max: 1.6015; label: 1.59 s" role="graphics-symbol" aria-roledescription="text mark" text-anchor="middle" transform="translate(242.85714285714283,221.82181818181817)" font-family="Helvetica, Arial, sans-serif" font-size="11.5px" font-weight="600" fill="#100F0F">1.59 s</text><text aria-label="tool: creosote; max: 2.2292; label: 2.11 s" role="graphics-symbol" aria-roledescription="text mark" text-anchor="middle" transform="translate(340,185.30109090909093)" font-family="Helvetica, Arial, sans-serif" font-size="11.5px" font-weight="600" fill="#100F0F">2.11 s</text><text aria-label="tool: pytomlcleaner; max: 3.869; label: 3.73 s" role="graphics-symbol" aria-roledescription="text mark" text-anchor="middle" transform="translate(437.1428571428571,89.89454545454547)" font-family="Helvetica, Arial, sans-serif" font-size="11.5px" font-weight="600" fill="#100F0F">3.73 s</text><text aria-label="tool: pip-extra-reqs; max: 4.808; label: 4.75 s" role="graphics-symbol" aria-roledescription="text mark" text-anchor="middle" transform="translate(534.2857142857142,35.261818181818185)" font-family="Helvetica, Arial, sans-serif" font-size="11.5px" font-weight="600" fill="#100F0F">4.75 s</text><text aria-label="tool: fawltydeps; max: 5.4632; label: 5.41 s" role="graphics-symbol" aria-roledescription="text mark" text-anchor="middle" transform="translate(631.4285714285714,-2.8589090909090586)" font-family="Helvetica, Arial, sans-serif" font-size="11.5px" font-weight="600" fill="#100F0F">5.41 s</text></g><g class="mark-group role-title"><g transform="translate(-39.29150390625,-62.85890909090906)"><path class="background" aria-hidden="true" d="M0,0h0v0h0Z" pointer-events="none"/><g><g class="mark-text role-title-text" role="graphics-symbol" aria-roledescription="title" aria-label="Title text 'Checking for unused dependencies in PrefectHQ/prefect'" pointer-events="none"><text text-anchor="start" transform="translate(0,13)" font-family="Helvetica, Arial, sans-serif" font-size="16px" font-weight="bold" fill="#100F0F" opacity="1">Checking for unused dependencies in PrefectHQ/prefect</text></g><g class="mark-text role-title-subtitle" role="graphics-symbol" aria-roledescription="subtitle" aria-label="Subtitle text '563k lines of Python, 57 dependencies. Bars show hyperfine mean over ≥10 runs; whiskers span min–max. Lower is better.'" pointer-events="none"><text text-anchor="start" transform="translate(0,31)" font-family="Helvetica, Arial, sans-serif" font-size="12px" fill="#6F6E69" opacity="1">563k lines of Python, 57 dependencies. Bars show hyperfine mean over ≥10 runs; whiskers span min–max. Lower is better.</text></g></g><path class="foreground" aria-hidden="true" d="" pointer-events="none" display="none"/></g></g></g><path class="foreground" aria-hidden="true" d="" display="none"/></g></g></g><defs><clipPath id="clip1"><path d="M3,0L51.205714285714286,0C52.86145935919629,0,54.205714285714286,1.344254926518,54.205714285714286,3L54.205714285714286,12.718545454545449C54.205714285714286,12.718545454545449,54.205714285714286,12.718545454545449,54.205714285714286,12.718545454545449L0,12.718545454545449C0,12.718545454545449,0,12.718545454545449,0,12.718545454545449L0,3C0,1.344254926518,1.344254926518,0,3,0Z"/></clipPath><clipPath id="clip2"><path d="M3,0L51.205714285714286,0C52.86145935919629,0,54.205714285714286,1.344254926518,54.205714285714286,3L54.205714285714286,15.790545454545452C54.205714285714286,15.790545454545452,54.205714285714286,15.790545454545452,54.205714285714286,15.790545454545452L0,15.790545454545452C0,15.790545454545452,0,15.790545454545452,0,15.790545454545452L0,3C0,1.344254926518,1.344254926518,0,3,0Z"/></clipPath><clipPath id="clip3"><path d="M3,0L51.205714285714286,0C52.86145935919629,0,54.205714285714286,1.344254926518,54.205714285714286,3L54.205714285714286,92.45090909090908C54.205714285714286,92.45090909090908,54.205714285714286,92.45090909090908,54.205714285714286,92.45090909090908L0,92.45090909090908C0,92.45090909090908,0,92.45090909090908,0,92.45090909090908L0,3C0,1.344254926518,1.344254926518,0,3,0Z"/></clipPath><clipPath id="clip4"><path d="M3,0L51.205714285714286,0C52.86145935919629,0,54.205714285714286,1.344254926518,54.205714285714286,3L54.205714285714286,123.00799999999998C54.205714285714286,123.00799999999998,54.205714285714286,123.00799999999998,54.205714285714286,123.00799999999998L0,123.00799999999998C0,123.00799999999998,0,123.00799999999998,0,123.00799999999998L0,3C0,1.344254926518,1.344254926518,0,3,0Z"/></clipPath><clipPath id="clip5"><path d="M3,0L51.205714285714286,0C52.86145935919629,0,54.205714285714286,1.344254926518,54.205714285714286,3L54.205714285714286,217.01818181818183C54.205714285714286,217.01818181818183,54.205714285714286,217.01818181818183,54.205714285714286,217.01818181818183L0,217.01818181818183C0,217.01818181818183,0,217.01818181818183,0,217.01818181818183L0,3C0,1.344254926518,1.344254926518,0,3,0Z"/></clipPath><clipPath id="clip6"><path d="M3,0L51.205714285714286,0C52.86145935919629,0,54.205714285714286,1.344254926518,54.205714285714286,3L54.205714285714286,276.62545454545455C54.205714285714286,276.62545454545455,54.205714285714286,276.62545454545455,54.205714285714286,276.62545454545455L0,276.62545454545455C0,276.62545454545455,0,276.62545454545455,0,276.62545454545455L0,3C0,1.344254926518,1.344254926518,0,3,0Z"/></clipPath><clipPath id="clip7"><path d="M3,0L51.205714285714286,0C52.86145935919629,0,54.205714285714286,1.344254926518,54.205714285714286,3L54.205714285714286,314.5076363636364C54.205714285714286,314.5076363636364,54.205714285714286,314.5076363636364,54.205714285714286,314.5076363636364L0,314.5076363636364C0,314.5076363636364,0,314.5076363636364,0,314.5076363636364L0,3C0,1.344254926518,1.344254926518,0,3,0Z"/></clipPath></defs></svg>