<svg xmlns="http://www.w3.org/2000/svg" xmlns:xlink="http://www.w3.org/1999/xlink" version="1.1" class="marks" width="730" height="412" viewBox="0 0 730 412"><rect width="730" height="412" fill="#FFFCF0"/><g fill="none" stroke-miterlimit="10" transform="translate(45,68)"><g class="mark-group role-frame root" role="graphics-object" aria-roledescription="group mark container"><g transform="translate(0,0)"><path class="background" aria-hidden="true" d="M0,0h680v320h-680Z"/><g><g class="mark-group role-axis" aria-hidden="true"><g transform="translate(0.5,0.5)"><path class="background" aria-hidden="true" d="M0,0h0v0h0Z" pointer-events="none"/><g><g class="mark-rule role-axis-grid" pointer-events="none"><line transform="translate(0,320)" x2="680" y2="0" stroke="#E6E4D9" stroke-width="1" stroke-dasharray="" opacity="1"/><line transform="translate(0,291)" x2="680" y2="0" stroke="#E6E4D9" stroke-width="1" stroke-dasharray="" opacity="1"/><line transform="translate(0,262)" x2="680" y2="0" stroke="#E6E4D9" stroke-width="1" stroke-dasharray="" opacity="1"/><line transform="translate(0,233)" x2="680" y2="0" stroke="#E6E4D9" stroke-width="1" stroke-dasharray="" opacity="1"/><line transform="translate(0,204)" x2="680" y2="0" stroke="#E6E4D9" stroke-width="1" stroke-dasharray="" opacity="1"/><line transform="translate(0,175)" x2="680" y2="0" stroke="#E6E4D9" stroke-width="1" stroke-dasharray="" opacity="1"/><line transform="translate(0,145)" x2="680" y2="0" stroke="#E6E4D9" stroke-width="1" stroke-dasharray="" opacity="1"/><line transform="translate(0,116)" x2="680" y2="0" stroke="#E6E4D9" stroke-width="1" stroke-dasharray="" opacity="1"/><line transform="translate(0,87)" x2="680" y2="0" stroke="#E6E4D9" stroke-width="1" stroke-dasharray="" opacity="1"/><line transform="translate(0,58)" x2="680" y2="0" stroke="#E6E4D9" stroke-width="1" stroke-dasharray="" opacity="1"/><line transform="translate(0,29)" x2="680" y2="0" stroke="#E6E4D9" stroke-width="1" stroke-dasharray="" opacity="1"/><line transform="translate(0,0)" x2="680" y2="0" stroke="#E6E4D9" stroke-width="1" stroke-dasharray="" opacity="1"/></g></g><path class="foreground" aria-hidden="true" d="" pointer-events="none" display="none"/></g></g><g class="mark-group role-axis" role="graphics-symbol" aria-roledescription="axis" aria-label="X-axis for a discrete scale with 7 values: pyproject-udeps, deptry, py-unused-deps, creosote, pytomlcleaner, pip-extra-reqs, fawltydeps"><g transform="translate(0.5,320.5)"><path class="background" aria-hidden="true" d="M0,0h0v0h0Z" pointer-events="none"/><g><g class="mark-rule role-axis-tick" pointer-events="none"><line transform="translate(48,0)" x2="0" y2="5" stroke="#6F6E69" stroke-width="1" opacity="1"/><line transform="translate(145,0)" x2="0" y2="5" stroke="#6F6E69" stroke-width="1" opacity="1"/><line transform="translate(242,0)" x2="0" y2="5" stroke="#6F6E69" stroke-width="1" opacity="1"/><line transform="translate(340,0)" x2="0" y2="5" stroke="#6F6E69" stroke-width="1" opacity="1"/><line transform="translate(437,0)" x2="0" y2="5" stroke="#6F6E69" stroke-width="1" opacity="1"/><line transform="translate(534,0)" x2="0" y2="5" stroke="#6F6E69" stroke-width="1" opacity="1"/><line transform="translate(631,0)" x2="0" y2="5" stroke="#6F6E69" stroke-width="1" opacity="1"/></g><g class="mark-text role-axis-label" pointer-events="none"><text text-anchor="middle" transform="translate(48.07142857142855,16)" font-family="Helvetica, Arial, sans-serif" font-size="11.5px" fill="#100F0F" opacity="1">pyproject-udeps</text><text text-anchor="middle" transform="translate(145.2142857142857,16)" font-family="Helvetica, Arial, sans-serif" font-size="11.5px" fill="#100F0F" opacity="1">deptry</text><text text-anchor="middle" transform="translate(242.35714285714283,16)" font-family="Helvetica, Arial, sans-serif" font-size="11.5px" fill="#100F0F" opacity="1">py-unused-deps</text><text text-anchor="middle" transform="translate(339.5,16)" font-family="Helvetica, Arial, sans-serif" font-size="11.5px" fill="#100F0F" opacity="1">creosote</text><text text-anchor="middle" transform="translate(436.6428571428571,16)" font-family="Helvetica, Arial, sans-serif" font-size="11.5px" fill="#100F0F" opacity="1">pytomlcleaner</text><text text-anchor="middle" transform="translate(533.7857142857142,16)" font-family="Helvetica, Arial, sans-serif" font-size="11.5px" fill="#100F0F" opacity="1">pip-extra-reqs</text><text text-anchor="middle" transform="translate(630.9285714285714,16)" font-family="Helvetica, Arial, sans-serif" font-size="11.5px" fill="#100F0F" opacity="1">fawltydeps</text></g><g class="mark-rule role-axis-domain" pointer-events="none"><line transform="translate(0,0)" x2="680" y2="0" stroke="#6F6E69" stroke-width="1" opacity="1"/></g></g><path class="foreground" aria-hidden="true" d="" pointer-events="none" display="none"/></g></g><g class="mark-group role-axis" role="graphics-symbol" aria-roledescription="axis" aria-label="Y-axis titled 'Time (seconds)' for a linear scale with values from 0 to 6"><g transform="translate(0.5,0.5)"><path class="background" aria-hidden="true" d="M0,0h0v0h0Z" pointer-events="none"/><g><g class="mark-rule role-axis-tick" pointer-events="none"><line transform="translate(0,320)" x2="-5" y2="0" stroke="#6F6E69" stroke-width="1" opacity="1"/><line transform="translate(0,291)" x2="-5" y2="0" stroke="#6F6E69" stroke-width="1" opacity="1"/><line transform="translate(0,262)" x2="-5" y2="0" stroke="#6F6E69" stroke-width="1" opacity="1"/><line transform="translate(0,233)" x2="-5" y2="0" stroke="#6F6E69" stroke-width="1" opacity="1"/><line transform="translate(0,204)" x2="-5" y2="0" stroke="#6F6E69" stroke-width="1" opacity="1"/><line transform="translate(0,175)" x2="-5" y2="0" stroke="#6F6E69" stroke-width="1" opacity="1"/><line transform="translate(0,145)" x2="-5" y2="0" stroke="#6F6E69" stroke-width="1" opacity="1"/><line transform="translate(0,116)" x2="-5" y2="0" stroke="#6F6E69" stroke-width="1" opacity="1"/><line transform="translate(0,87)" x2="-5" y2="0" stroke="#6F6E69" stroke-width="1" opacity="1"/><line transform="translate(0,58)" x2="-5" y2="0" stroke="#6F6E69" stroke-width="1" opacity="1"/><line transform="translate(0,29)" x2="-5" y2="0" stroke="#6F6E69" stroke-width="1" opacity="1"/><line transform="translate(0,0)" x2="-5" y2="0" stroke="#6F6E69" stroke-width="1" opacity="1"/></g><g class="mark-text role-axis-label" pointer-events="none"><text text-anchor="end" transform="translate(-7,323)" font-family="Helvetica, Arial, sans-serif" font-size="11px" fill="#6F6E69" opacity="1">0.0</text><text text-anchor="end" transform="translate(-7,293.9090909090909)" font-family="Helvetica, Arial, sans-serif" font-size="11px" fill="#6F6E69" opacity="1">0.5</text><text text-anchor="end" transform="translate(-7,264.8181818181818)" font-family="Helvetica, Arial, sans-serif" font-size="11px" fill="#6F6E69" opacity="1">1.0</text><text text-anchor="end" transform="translate(-7,235.72727272727275)" font-family="Helvetica, Arial, sans-serif" font-size="11px" fill="#6F6E69" opacity="1">1.5</text><text text-anchor="end" transform="translate(-7,206.63636363636363)" font-family="Helvetica, Arial, sans-serif" font-size="11px" fill="#6F6E69" opacity="1">2.0</text><text text-anchor="end" transform="translate(-7,177.54545454545453)" font-family="Helvetica, Arial, sans-serif" font-size="11px" fill="#6F6E69" opacity="1">2.5</text><text text-anchor="end" transform="translate(-7,148.45454545454547)" font-family="Helvetica, Arial, sans-serif" font-size="11px" fill="#6F6E69" opacity="1">3.0</text><text text-anchor="end" transform="translate(-7,119.36363636363637)" font-family="Helvetica, Arial, sans-serif" font-size="11px" fill="#6F6E69" opacity="1">3.5</text><text text-anchor="end" transform="translate(-7,90.27272727272727)" font-family="Helvetica, Arial, sans-serif" font-size="11px" fill="#6F6E69" opacity="1">4.0</text><text text-anchor="end" transform="translate(-7,61.181818181818166)" font-family="Helvetica, Arial, sans-serif" font-size="11px" fill="#6F6E69" opacity="1">4.5</text><text text-anchor="end" transform="translate(-7,32.0909090909091)" font-family="Helvetica, Arial, sans-serif" font-size="11px" fill="#6F6E69" opacity="1">5.0</text><text text-anchor="end" transform="translate(-7,3)" font-family="Helvetica, Arial, sans-serif" font-size="11px" fill="#6F6E69" opacity="1">5.5</text></g><g class="mark-rule role-axis-domain" pointer-events="none"><line transform="translate(0,320)" x2="0" y2="-320" stroke="#6F6E69" stroke-width="1" opacity="1"/></g><g class="mark-text role-axis-title" pointer-events="none"><text text-anchor="middle" transform="translate(-26.29150390625,160) rotate(-90) translate(0,-3)" font-family="Helvetica, Arial, sans-serif" font-size="12px" font-weight="bold" fill="#100F0F" opacity="1">Time (seconds)</text></g></g><path class="foreground" aria-hidden="true" d="" pointer-events="none" display="none"/></g></g><g class="mark-group role-scope" role="graphics-object" aria-roledescription="group mark container"><g transform="translate(21.468571428571405,307.36290909090906)"><path class="background" aria-hidden="true" d="M3,0L51.205714285714286,0C52.86145935919629,0,54.205714285714286,1.344254926518,54.205714285714286,3L54.205714285714286,12.637090909090944C54.205714285714286,12.637090909090944,54.205714285714286,12.637090909090944,54.205714285714286,12.637090909090944L0,12.637090909090944C0,12.637090909090944,0,12.637090909090944,0,12.637090909090944L0,3C0,1.344254926518,1.344254926518,0,3,0Z"/><g clip-path="url(#clip1)"><g class="mark-group role-scope" role="graphics-object" aria-roledescription="group mark container"><g transform="translate(0,-307.36290909090906)"><path class="background" aria-hidden="true" d="M0,0h54.205714285714286v0h-54.205714285714286Z"/><g><g class="mark-rect role-mark layer_0_marks" role="graphics-object" aria-roledescription="rect mark container"><path aria-label="tool: pyproject-udeps; Time (seconds): 0.2172" role="graphics-symbol" aria-roledescription="bar" d="M0,307.36290909090906h54.205714285714286v12.637090909090944h-54.205714285714286Z" fill="#AF3029"/></g></g><path class="foreground" aria-hidden="true" d="" display="none"/></g></g></g><path class="foreground" aria-hidden="true" d="" display="none"/></g><g transform="translate(118.61142857142855,304.3607272727273)"><path class="background" aria-hidden="true" d="M3,0L51.205714285714286,0C52.86145935919629,0,54.205714285714286,1.344254926518,54.205714285714286,3L54.205714285714286,15.639272727272726C54.205714285714286,15.639272727272726,54.205714285714286,15.639272727272726,54.205714285714286,15.639272727272726L0,15.639272727272726C0,15.639272727272726,0,15.639272727272726,0,15.639272727272726L0,3C0,1.344254926518,1.344254926518,0,3,0Z"/><g clip-path="url(#clip2)"><g class="mark-group role-scope" role="graphics-object" aria-roledescription="group mark container"><g transform="translate(0,-304.3607272727273)"><path class="background" aria-hidden="true" d="M0,0h54.205714285714286v0h-54.205714285714286Z"/><g><g class="mark-rect role-mark layer_0_marks" role="graphics-object" aria-roledescription="rect mark container"><path aria-label="tool: deptry; Time (seconds): 0.2688" role="graphics-symbol" aria-roledescription="bar" d="M0,304.3607272727273h54.205714285714286v15.639272727272726h-54.205714285714286Z" fill="#205EA6"/></g></g><path class="foreground" aria-hidden="true" d="" display="none"/></g></g></g><path class="foreground" aria-hidden="true" d="" display="none"/></g><g transform="translate(215.7542857142857,227.61890909090909)"><path class="background" aria-hidden="true" d="M3,0L51.205714285714286,0C52.86145935919629,0,54.205714285714286,1.344254926518,54.205714285714286,3L54.205714285714286,92.38109090909091C54.205714285714286,92.38109090909091,54.205714285714286,92.38109090909091,54.205714285714286,92.38109090909091L0,92.38109090909091C0,92.38109090909091,0,92.38109090909091,0,92.38109090909091L0,3C0,1.344254926518,1.344254926518,0,3,0Z"/><g clip-path="url(#clip3)"><g class="mark-group role-scope" role="graphics-object" aria-roledescription="group mark container"><g transform="translate(0,-227.61890909090909)"><path class="background" aria-hidden="true" d="M0,0h54.205714285714286v0h-54.205714285714286Z"/><g><g class="mark-rect role-mark layer_0_marks" role="graphics-object" aria-roledescription="rect mark container"><path aria-label="tool: py-unused-deps; Time (seconds): 1.5878" role="graphics-symbol" aria-roledescription="bar" d="M0,227.61890909090909h54.205714285714286v92.38109090909091h-54.205714285714286Z" fill="#205EA6"/></g></g><path class="foreground" aria-hidden="true" d="" display="none"/></g></g></g><path class="foreground" aria-hidden="true" d="" display="none"/></g><g transform="translate(312.89714285714285,197.952)"><path class="background" aria-hidden="true" d="M3,0L51.205714285714286,0C52.86145935919629,0,54.205714285714286,1.344254926518,54.205714285714286,3L54.205714285714286,122.048C54.205714285714286,122.048,54.205714285714286,122.048,54.205714285714286,122.048L0,122.048C0,122.048,0,122.048,0,122.048L0,3C0,1.344254926518,1.344254926518,0,3,0Z"/><g clip-path="url(#clip4)"><g class="mark-group role-scope" role="graphics-object" aria-roledescription="group mark container"><g transform="translate(0,-197.952)"><path class="background" aria-hidden="true" d="M0,0h54.205714285714286v0h-54.205714285714286Z"/><g><g class="mark-rect role-mark layer_0_marks" role="graphics-object" aria-roledescription="rect mark container"><path aria-label="tool: creosote; Time (seconds): 2.0977" role="graphics-symbol" aria-roledescription="bar" d="M0,197.952h54.205714285714286v122.048h-54.205714285714286Z" fill="#205EA6"/></g></g><path class="foreground" aria-hidden="true" d="" display="none"/></g></g></g><path class="foreground" aria-hidden="true" d="" display="none"/></g><g transform="translate(410.03999999999996,104.61672727272727)"><path class="background" aria-hidden="true" d="M3,0L51.205714285714286,0C52.86145935919629,0,54.205714285714286,1.344254926518,54.205714285714286,3L54.205714285714286,215.38327272727273C54.205714285714286,215.38327272727273,54.205714285714286,215.38327272727273,54.205714285714286,215.38327272727273L0,215.38327272727273C0,215.38327272727273,0,215.38327272727273,0,215.38327272727273L0,3C0,1.344254926518,1.344254926518,0,3,0Z"/><g clip-path="url(#clip5)"><g class="mark-group role-scope" role="graphics-object" aria-roledescription="group mark container"><g transform="translate(0,-104.61672727272727)"><path class="background" aria-hidden="true" d="M0,0h54.205714285714286v0h-54.205714285714286Z"/><g><g class="mark-rect role-mark layer_0_marks" role="graphics-object" aria-roledescription="rect mark container"><path aria-label="tool: pytomlcleaner; Time (seconds): 3.7019" role="graphics-symbol" aria-roledescription="bar" d="M0,104.61672727272727h54.205714285714286v215.38327272727273h-54.205714285714286Z" fill="#205EA6"/></g></g><path class="foreground" aria-hidden="true" d="" display="none"/></g></g></g><path class="foreground" aria-hidden="true" d="" display="none"/></g><g transform="translate(507.1828571428571,43.94472727272728)"><path class="background" aria-hidden="true" d="M3,0L51.205714285714286,0C52.86145935919629,0,54.205714285714286,1.344254926518,54.205714285714286,3L54.205714285714286,276.0552727272727C54.205714285714286,276.0552727272727,54.205714285714286,276.0552727272727,54.205714285714286,276.0552727272727L0,276.0552727272727C0,276.0552727272727,0,276.0552727272727,0,276.0552727272727L0,3C0,1.344254926518,1.344254926518,0,3,0Z"/><g clip-path="url(#clip6)"><g class="mark-group role-scope" role="graphics-object" aria-roledescription="group mark container"><g transform="translate(0,-43.94472727272728)"><path class="background" aria-hidden="true" d="M0,0h54.205714285714286v0h-54.205714285714286Z"/><g><g class="mark-rect role-mark layer_0_marks" role="graphics-object" aria-roledescription="rect mark container"><path aria-label="tool: pip-extra-reqs; Time (seconds): 4.7447" role="graphics-symbol" aria-roledescription="bar" d="M0,43.94472727272728h54.205714285714286v276.0552727272727h-54.205714285714286Z" fill="#205EA6"/></g></g><path class="foreground" aria-hidden="true" d="" display="none"/></g></g></g><path class="foreground" aria-hidden="true" d="" display="none"/></g><g transform="translate(604.3257142857143,5.70181818181819)"><path class="background" aria-hidden="true" d="M3,0L51.205714285714286,0C52.86145935919629,0,54.205714285714286,1.344254926518,54.205714285714286,3L54.205714285714286,314.29818181818183C54.205714285714286,314.29818181818183,54.205714285714286,314.29818181818183,54.205714285714286,314.29818181818183L0,314.29818181818183C0,314.29818181818183,0,314.29818181818183,0,314.29818181818183L0,3C0,1.344254926518,1.344254926518,0,3,0Z"/><g clip-path="url(#clip7)"><g class="mark-group role-scope" role="graphics-object" aria-roledescription="group mark container"><g transform="translate(0,-5.70181818181819)"><path class="background" aria-hidden="true" d="M0,0h54.205714285714286v0h-54.205714285714286Z"/><g><g class="mark-rect role-mark layer_0_marks" role="graphics-object" aria-roledescription="rect mark container"><path aria-label="tool: fawltydeps; Time (seconds): 5.402" role="graphics-symbol" aria-roledescription="bar" d="M0,5.70181818181819h54.205714285714286v314.29818181818183h-54.205714285714286Z" fill="#205EA6"/></g></g><path class="foreground" aria-hidden="true" d="" display="none"/></g></g></g><path class="foreground" aria-hidden="true" d="" display="none"/></g></g><g class="mark-rule role-mark layer_1_marks" role="graphics-object" aria-roledescription="rule mark container"><line aria-label="tool: pyproject-udeps; min: 0.2134; max: 0.221" role="graphics-symbol" aria-roledescription="rule mark" transform="translate(48.57142857142855,307.584)" x2="0" y2="-0.44218181818183666" stroke="#100F0F" stroke-width="1.2"/><line aria-label="tool: deptry; min: 0.2626; max: 0.2772" role="graphics-symbol" aria-roledescription="rule mark" transform="translate(145.7142857142857,304.72145454545455)" x2="0" y2="-0.8494545454545346" stroke="#100F0F" stroke-width="1.2"/><line aria-label="tool: py-unused-deps; min: 1.5737; max: 1.6043" role="graphics-symbol" aria-roledescription="rule mark" transform="translate(242.85714285714283,228.4392727272727)" x2="0" y2="-1.7803636363636315" stroke="#100F0F" stroke-width="1.2"/><line aria-label="tool: creosote; min: 2.075; max: 2.1197" role="graphics-symbol" aria-roledescription="rule mark" transform="translate(340,199.27272727272725)" x2="0" y2="-2.6007272727272266" stroke="#100F0F" stroke-width="1.2"/><line aria-label="tool: pytomlcleaner; min: 3.6556; max: 3.7501" role="graphics-symbol" aria-roledescription="rule mark" transform="translate(437.1428571428571,107.31054545454543)" x2="0" y2="-5.49818181818182" stroke="#100F0F" stroke-width="1.2"/><line aria-label="tool: pip-extra-reqs; min: 4.7167; max: 4.777" role="graphics-symbol" aria-roledescription="rule mark" transform="translate(534.2857142857142,45.57381818181817)" x2="0" y2="-3.5083636363636472" stroke="#100F0F" stroke-width="1.2"/><line aria-label="tool: fawltydeps; min: 5.3483; max: 5.4565" role="graphics-symbol" aria-roledescription="rule mark" transform="translate(631.4285714285714,8.826181818181809)" x2="0" y2="-6.295272727272732" stroke="#100F0F" stroke-width="1.2"/></g><g class="mark-rect role-mark layer_2_marks" role="graphics-object" aria-roledescription="rect mark container"><path aria-label="tool: pyproject-udeps; min: 0.2134" role="graphics-symbol" aria-roledescription="tick" d="M45.07142857142855,306.984h7v1.2h-7Z" fill="#100F0F" opacity="0.7"/><path aria-label="tool: deptry; min: 0.2626" role="graphics-symbol" aria-roledescription="tick" d="M142.2142857142857,304.1214545454545h7v1.2h-7Z" fill="#100F0F" opacity="0.7"/><path aria-label="tool: py-unused-deps; min: 1.5737" role="graphics-symbol" aria-roledescription="tick" d="M239.35714285714283,227.83927272727271h7v1.2h-7Z" fill="#100F0F" opacity="0.7"/><path aria-label="tool: creosote; min: 2.075" role="graphics-symbol" aria-roledescription="tick" d="M336.5,198.67272727272726h7v1.2h-7Z" fill="#100F0F" opacity="0.7"/><path aria-label="tool: pytomlcleaner; min: 3.6556" role="graphics-symbol" aria-roledescription="tick" d="M433.6428571428571,106.71054545454544h7v1.2h-7Z" fill="#100F0F" opacity="0.7"/><path aria-label="tool: pip-extra-reqs; min: 4.7167" role="graphics-symbol" aria-roledescription="tick" d="M530.7857142857142,44.97381818181817h7v1.2h-7Z" fill="#100F0F" opacity="0.7"/><path aria-label="tool: fawltydeps; min: 5.3483" role="graphics-symbol" aria-roledescription="tick" d="M627.9285714285714,8.226181818181809h7v1.2h-7Z" fill="#100F0F" opacity="0.7"/></g><g class="mark-rect role-mark layer_3_marks" role="graphics-object" aria-roledescription="rect mark container"><path aria-label="tool: pyproject-udeps; max: 0.221" role="graphics-symbol" aria-roledescription="tick" d="M45.07142857142855,306.54181818181814h7v1.2h-7Z" fill="#100F0F" opacity="0.7"/><path aria-label="tool: deptry; max: 0.2772" role="graphics-symbol" aria-roledescription="tick" d="M142.2142857142857,303.272h7v1.2h-7Z" fill="#100F0F" opacity="0.7"/><path aria-label="tool: py-unused-deps; max: 1.6043" role="graphics-symbol" aria-roledescription="tick" d="M239.35714285714283,226.05890909090908h7v1.2h-7Z" fill="#100F0F" opacity="0.7"/><path aria-label="tool: creosote; max: 2.1197" role="graphics-symbol" aria-roledescription="tick" d="M336.5,196.07200000000003h7v1.2h-7Z" fill="#100F0F" opacity="0.7"/><path aria-label="tool: pytomlcleaner; max: 3.7501" role="graphics-symbol" aria-roledescription="tick" d="M433.6428571428571,101.21236363636362h7v1.2h-7Z" fill="#100F0F" opacity="0.7"/><path aria-label="tool: pip-extra-reqs; max: 4.777" role="graphics-symbol" aria-roledescription="tick" d="M530.7857142857142,41.46545454545452h7v1.2h-7Z" fill="#100F0F" opacity="0.7"/><path aria-label="tool: fawltydeps; max: 5.4565" role="graphics-symbol" aria-roledescription="tick" d="M627.9285714285714,1.930909090909077h7v1.2h-7Z" fill="#100F0F" opacity="0.7"/></g><g class="mark-text role-mark layer_4_marks" role="graphics-object" aria-roledescription="text mark container"><text aria-label="tool: pyproject-udeps; max: 0.221; label: 0.22 s" role="graphics-symbol" aria-roledescription="text mark" text-anchor="middle" transform="translate(48.57142857142855,302.14181818181817)" font-family="Helvetica, Arial, sans-serif" font-size="11.5px" font-weight="600" fill="#100F0F">0.22 s</text><text aria-label="tool: deptry; max: 0.2772; label: 0.27 s" role="graphics-symbol" aria-roledescription="text mark" text-anchor="middle" transform="translate(145.7142857142857,298.872)" font-family="Helvetica, Arial, sans-serif" font-size="11.5px" font-weight="600" fill="#100F0F">0.27 s</text><text aria-label="tool: py-unused-deps; max: 1.6043; label: 1.59 s" role="graphics-symbol" aria-roledescription="text mark" text-anchor="middle" transform="translate(242.85714285714283,221.65890909090908)" font-family="Helvetica, Arial, sans-serif" font-size="11.5px" font-weight="600" fill="#100F0F">1.59 s</text><text aria-label="tool: creosote; max: 2.1197; label: 2.10 s" role="graphics-symbol" aria-roledescription="text mark" text-anchor="middle" transform="translate(340,191.67200000000003)" font-family="Helvetica, Arial, sans-serif" font-size="11.5px" font-weight="600" fill="#100F0F">2.10 s</text><text aria-label="tool: pytomlcleaner; max: 3.7501; label: 3.70 s" role="graphics-symbol" aria-roledescription="text mark" text-anchor="middle" transform="translate(437.1428571428571,96.81236363636361)" font-family="Helvetica, Arial, sans-serif" font-size="11.5px" font-weight="600" fill="#100F0F">3.70 s</text><text aria-label="tool: pip-extra-reqs; max: 4.777; label: 4.74 s" role="graphics-symbol" aria-roledescription="text mark" text-anchor="middle" transform="translate(534.2857142857142,37.06545454545452)" font-family="Helvetica, Arial, sans-serif" font-size="11.5px" font-weight="600" fill="#100F0F">4.74 s</text><text aria-label="tool: fawltydeps; max: 5.4565; label: 5.40 s" role="graphics-symbol" aria-roledescription="text mark" text-anchor="middle" transform="translate(631.4285714285714,-2.469090909090923)" font-family="Helvetica, Arial, sans-serif" font-size="11.5px" font-weight="600" fill="#100F0F">5.40 s</text></g><g class="mark-group role-title"><g transform="translate(-39.29150390625,-62.46909090909092)"><path class="background" aria-hidden="true" d="M0,0h0v0h0Z" pointer-events="none"/><g><g class="mark-text role-title-text" role="graphics-symbol" aria-roledescription="title" aria-label="Title text 'Checking for unused dependencies in PrefectHQ/prefect'" pointer-events="none"><text text-anchor="start" transform="translate(0,13)" font-family="Helvetica, Arial, sans-serif" font-size="16px" font-weight="bold" fill="#100F0F" opacity="1">Checking for unused dependencies in PrefectHQ/prefect</text></g><g class="mark-text role-title-subtitle" role="graphics-symbol" aria-roledescription="subtitle" aria-label="Subtitle text '563k lines of Python, 57 dependencies. Bars show hyperfine mean over ≥10 runs; whiskers span min–max. Lower is better.'" pointer-events="none"><text text-anchor="start" transform="translate(0,31)" font-family="Helvetica, Arial, sans-serif" font-size="12px" fill="#6F6E69" opacity="1">563k lines of Python, 57 dependencies. Bars show hyperfine mean over ≥10 runs; whiskers span min–max. Lower is better.</text></g></g><path class="foreground" aria-hidden="true" d="" pointer-events="none" display="none"/></g></g></g><path class="foreground" aria-hidden="true" d="" display="none"/></g></g></g><defs><clipPath id="clip1"><path d="M3,0L51.205714285714286,0C52.86145935919629,0,54.205714285714286,1.344254926518,54.205714285714286,3L54.205714285714286,12.637090909090944C54.205714285714286,12.637090909090944,54.205714285714286,12.637090909090944,54.205714285714286,12.637090909090944L0,12.637090909090944C0,12.637090909090944,0,12.637090909090944,0,12.637090909090944L0,3C0,1.344254926518,1.344254926518,0,3,0Z"/></clipPath><clipPath id="clip2"><path d="M3,0L51.205714285714286,0C52.86145935919629,0,54.205714285714286,1.344254926518,54.205714285714286,3L54.205714285714286,15.639272727272726C54.205714285714286,15.639272727272726,54.205714285714286,15.639272727272726,54.205714285714286,15.639272727272726L0,15.639272727272726C0,15.639272727272726,0,15.639272727272726,0,15.639272727272726L0,3C0,1.344254926518,1.344254926518,0,3,0Z"/></clipPath><clipPath id="clip3"><path d="M3,0L51.205714285714286,0C52.86145935919629,0,54.205714285714286,1.344254926518,54.205714285714286,3L54.205714285714286,92.38109090909091C54.205714285714286,92.38109090909091,54.205714285714286,92.38109090909091,54.205714285714286,92.38109090909091L0,92.38109090909091C0,92.38109090909091,0,92.38109090909091,0,92.38109090909091L0,3C0,1.344254926518,1.344254926518,0,3,0Z"/></clipPath><clipPath id="clip4"><path d="M3,0L51.205714285714286,0C52.86145935919629,0,54.205714285714286,1.344254926518,54.205714285714286,3L54.205714285714286,122.048C54.205714285714286,122.048,54.205714285714286,122.048,54.205714285714286,122.048L0,122.048C0,122.048,0,122.048,0,122.048L0,3C0,1.344254926518,1.344254926518,0,3,0Z"/></clipPath><clipPath id="clip5"><path d="M3,0L51.205714285714286,0C52.86145935919629,0,54.205714285714286,1.344254926518,54.205714285714286,3L54.205714285714286,215.38327272727273C54.205714285714286,215.38327272727273,54.205714285714286,215.38327272727273,54.205714285714286,215.38327272727273L0,215.38327272727273C0,215.38327272727273,0,215.38327272727273,0,215.38327272727273L0,3C0,1.344254926518,1.344254926518,0,3,0Z"/></clipPath><clipPath id="clip6"><path d="M3,0L51.205714285714286,0C52.86145935919629,0,54.205714285714286,1.344254926518,54.205714285714286,3L54.205714285714286,276.0552727272727C54.205714285714286,276.0552727272727,54.205714285714286,276.0552727272727,54.205714285714286,276.0552727272727L0,276.0552727272727C0,276.0552727272727,0,276.0552727272727,0,276.0552727272727L0,3C0,1.344254926518,1.344254926518,0,3,0Z"/></clipPath><clipPath id="clip7"><path d="M3,0L51.205714285714286,0C52.86145935919629,0,54.205714285714286,1.344254926518,54.205714285714286,3L54.205714285714286,314.29818181818183C54.205714285714286,314.29818181818183,54.205714285714286,314.29818181818183,54.205714285714286,314.29818181818183L0,314.29818181818183C0,314.29818181818183,0,314.29818181818183,0,314.29818181818183L0,3C0,1.344254926518,1.344254926518,0,3,0Z"/></clipPath></defs></svg>